<?xml version="1.0" standalone="no"?>
<!DOCTYPE svg PUBLIC "-//W3C//DTD SVG 20010904//EN"
 "http://www.w3.org/TR/2001/REC-SVG-20010904/DTD/svg10.dtd">
<svg version="1.0" xmlns="http://www.w3.org/2000/svg"
 width="287.000000pt" height="276.000000pt" viewBox="0 0 287.000000 276.000000"
 preserveAspectRatio="xMidYMid meet">

<g transform="translate(0.000000,276.000000) scale(0.100000,-0.100000)"
fill="#000000" stroke="none">
<path d="M0 1380 l0 -1380 1435 0 1435 0 0 1380 0 1380 -1435 0 -1435 0 0
-1380z m624 1296 c20 -8 37 -25 45 -44 11 -26 7 -48 -33 -193 -93 -331 -243
-1169 -210 -1169 14 0 384 287 384 298 0 2 -16 22 -35 43 -19 22 -35 43 -35
48 0 5 19 31 43 57 24 27 64 78 89 114 85 120 129 150 220 150 71 0 126 -34
162 -99 15 -28 31 -51 35 -51 4 0 86 27 182 61 222 77 222 77 252 47 13 -13
28 -32 34 -43 7 -12 26 -20 54 -24 l44 -6 -3 -113 c-2 -61 -1 -112 3 -112 3 0
61 52 127 116 136 131 201 170 263 158 179 -33 186 -365 11 -540 -83 -82 -204
-108 -275 -57 -36 26 -90 137 -98 201 -3 28 -9 52 -12 52 -26 -1 -33 -39 -71
-356 -66 -564 -101 -738 -175 -891 -55 -113 -111 -184 -170 -219 -40 -23 -54
-26 -110 -22 -76 5 -105 22 -151 91 -37 54 -84 172 -109 274 -22 94 -17 206
14 285 54 139 219 377 444 639 122 143 126 148 135 208 5 33 7 61 6 61 -2 0
-22 -29 -44 -64 -70 -110 -170 -185 -248 -186 -49 0 -92 46 -92 97 0 56 26
137 70 220 l38 71 -56 -25 c-32 -14 -58 -26 -59 -27 -1 -1 -9 -50 -17 -108
-26 -180 -76 -271 -178 -322 -123 -61 -205 -23 -261 122 l-12 32 -105 -92
c-58 -50 -159 -141 -224 -201 -66 -60 -129 -114 -141 -119 -49 -22 -179 46
-200 106 -7 21 -5 34 8 54 56 90 98 244 147 537 47 285 90 690 90 856 0 45 5
80 12 87 17 17 170 16 212 -2z m1951 -1070 c49 -21 69 -58 70 -128 0 -55 -3
-62 -33 -89 -63 -56 -176 -30 -209 48 -19 48 -5 104 40 151 35 36 74 42 132
18z"/>
<path d="M1095 1862 c-35 -22 -99 -92 -91 -100 10 -9 168 41 173 55 6 16 -23
63 -40 63 -6 0 -26 -8 -42 -18z"/>
<path d="M1595 1772 c-62 -40 -103 -92 -144 -182 -25 -55 -26 -83 -5 -101 43
-36 155 92 195 223 31 100 26 107 -46 60z"/>
<path d="M2135 1734 c-33 -19 -66 -43 -72 -52 -16 -20 -17 -162 -2 -217 14
-52 36 -75 70 -75 36 0 85 49 115 115 41 86 27 227 -25 255 -25 13 -17 15 -86
-26z"/>
<path d="M1095 1666 l-100 -32 -3 -92 c-3 -107 10 -168 38 -177 29 -9 71 15
102 60 32 45 71 187 66 238 l-3 34 -100 -31z"/>
<path d="M1513 1193 c-148 -222 -211 -335 -237 -423 -42 -139 2 -485 70 -561
106 -117 232 321 305 1064 6 65 9 120 6 123 -3 3 -67 -88 -144 -203z"/>
</g>
</svg>
